<?xml version="1.0" encoding="utf-8" ?>
    <svg xmlns="http://www.w3.org/2000/svg" xmlns:xlink="http://www.w3.org/1999/xlink" width="757" height="757" viewBox="0 0 757 757">
        <clipPath id="cl_4">
            <rect width="756.78125" height="756.78125"/>
        </clipPath>
        <g clip-path="url(#cl_4)">
            <path fill="#2862DE" transform="matrix(0.953125 0 0 0.953125 -109.609 -109.609)" d="M496.905 120.519C713.116 112.2 895.116 280.769 903.362 496.983C911.609 713.198 742.978 895.141 526.761 903.315C310.647 911.485 128.809 742.952 120.566 526.84C112.324 310.728 280.796 128.834 496.905 120.519Z"/>
            <path fill="#FDFDFD" transform="matrix(0.953125 0 0 0.953125 -109.609 -109.609)" d="M495.373 242.72C553.997 240.132 611.89 256.538 660.441 289.497C666.572 293.673 674.343 299.075 679.911 303.859C675.458 318.276 670.842 332.643 666.063 346.956C640.753 324.564 616.943 309.299 584.819 297.981C525.837 277.312 461.088 280.704 404.588 307.424C348.688 333.789 305.676 381.443 285.159 439.743C265.242 496.594 268.74 559.031 294.883 613.302C322.845 671.436 369.701 712.568 430.364 733.85C433 726.762 435.553 718.201 437.94 710.944L451.847 668.979L497.523 531.096C501.292 520.015 504.972 508.903 508.563 497.763C510.669 491.2 512.3 482.238 515.948 476.524C517.824 473.585 546.479 449.174 551.144 445.399C553.573 443.433 556.583 441.337 559.874 441.854C561.146 442.053 562.604 443.024 563.222 444.163C566.018 449.314 558.183 476.306 556.183 483.32C551.605 499.385 545.775 515.24 540.529 531.11L512.832 615.05L457.688 783.664C447.01 780.949 437.946 779.58 426.707 776.289C388.085 764.849 352.448 745.064 322.316 718.332C267.863 669.907 235.033 601.719 231.138 528.952C227.185 457.573 251.753 387.548 299.435 334.285C350.158 277.679 419.959 246.787 495.373 242.72Z"/>
            <path fill="#FDFDFD" transform="matrix(0.953125 0 0 0.953125 -109.609 -109.609)" d="M739.09 237.963C740.17 237.848 741.307 237.7 742.384 237.892C743.849 238.153 745.238 238.874 745.992 240.215C748.202 244.14 746.816 284.99 745.49 290.887C744.296 296.199 742.306 301.479 740.628 306.662L732.187 332.723L705.774 414.224L622.124 671.347C602.296 666.957 582.491 663.221 562.689 658.983C555.607 679.847 549.159 700.968 542.085 721.841C539.575 729.248 537.118 736.73 534.901 744.229C554.603 742.672 578.178 735.628 596.232 727.8C654.352 702.54 700.213 655.446 723.922 596.677C745.657 541.007 744.634 479.024 721.075 424.102C727.148 405.768 733.044 387.376 738.761 368.928C754.713 391.908 767.108 425.171 773.882 452.18C780.474 480.705 782.407 510.109 779.607 539.251C772.704 612.144 736.677 679.166 679.687 725.133C623.487 771.848 550.788 793.857 478.115 786.158L513.961 675.552C520.795 654.251 527.535 632.238 534.748 611.154C554.516 615.788 574.876 619.256 594.654 624.06C598.041 614.908 601.567 602.672 604.605 593.199L622.188 538.873L679.412 362.134L698.254 304.353C701.1 295.62 706.263 276.199 711.791 270.456C719.971 261.96 730.735 244.73 739.09 237.963Z"/>
            <path fill="#FDFDFD" transform="matrix(0.953125 0 0 0.953125 -109.609 -109.609)" d="M634.979 355.547C636.08 355.685 637.275 355.788 638.318 356.18C639.774 356.728 640.998 357.912 641.626 359.33C643.156 362.787 642.836 399.689 641.851 404.484C640.251 412.283 636.988 420.238 634.552 427.85L619.396 475.18C606.09 516.698 593.155 560.561 579.158 601.56C570.415 599.66 561.658 597.827 552.888 596.059L538.698 593.093C543.863 577.96 548.718 561.574 553.623 546.251L582.817 454.659C587.089 440.793 591.486 426.965 596.008 413.179C596.86 410.511 601.716 394.494 602.238 393.622C606.546 386.427 628.776 358.125 634.979 355.547Z"/>
        </g>
    </svg>